<?xml version="1.0" encoding="UTF-8"?>
<svg width="1881px" height="2044px" viewBox="0 0 1881 2044" version="1.1" xmlns="http://www.w3.org/2000/svg" xmlns:xlink="http://www.w3.org/1999/xlink">
    <!-- Generator: Sketch 51.3 (57544) - http://www.bohemiancoding.com/sketch -->
    <title>Untitled 2</title>
    <desc>Created with Sketch.</desc>
    <defs></defs>
    <g id="Page-1" stroke="none" stroke-width="1" fill="none" fill-rule="evenodd">
        <g id="Conic_Sections" transform="translate(3.000000, 3.000000)">
            <polyline id="Shape" stroke="#000000" stroke-width="12.4977283" points="125.69618 1656.56325 750.58171 125.7414 1375.46724 1656.56325"></polyline>
            <path d="M1377.89474,1685.71629 C1377.8947,1853.08878 1099.91322,1989.11938 755.335307,1990.36655 C410.757397,1991.61372 128.633182,1857.61037 123.49793,1690.25647" id="Shape" stroke="#000000" stroke-width="14.0967629"></path>
            <path d="M1380.17188,1387.91762 C1380.17185,1555.29011 1102.19037,1691.32071 757.612455,1692.56788 C413.034545,1693.81505 130.91033,1559.8117 125.775078,1392.45779" id="Shape" stroke="#000000" stroke-width="14.0967629" stroke-dasharray="42.29028996625443,42.29028996625443" transform="translate(752.973481, 1540.247064) scale(-1, 1) rotate(-180.000000) translate(-752.973481, -1540.247064) "></path>
            <path d="M438.63498,896.16747 C475.04736,799.1168 617.47635,672.0599 756.55681,612.55834 C853.01234,571.29259 922.17694,570.87535 944.45644,611.42492" id="Shape" stroke="#000000" stroke-width="8.72157669" fill="#FF9955" fill-rule="nonzero" stroke-dasharray="26.16473023,26.16473023"></path>
            <polygon id="Shape" points="309.61193 1798.20907 1177.25914 2002.22704 1424.12094 952.37394 556.47375 748.35597"></polygon>
            <path d="M580.57162,1398.58815 C638.6768,1267.9632 961.94054,690.98846 1011.35264,776.57271 C1033.34231,814.659961 1027.83541,893.889545 1004.53829,1000.72369 C952.147682,1240.97257 809.78999,1620.82082 687.85037,1986.31087" id="Shape" stroke="#000000" stroke-width="8.91088009" fill="#B3FF80" fill-rule="nonzero" stroke-dasharray="26.73264062,26.73264062"></path>
            <path d="M645.13975,1681.7413 C1043.92084,714.06426 1043.92084,714.06426 1043.92084,714.06426" id="Shape" stroke="#6C5D53" stroke-width="6.24886417" fill="#483E37" fill-rule="nonzero" stroke-dasharray="24.9954564,12.4977282,6.2488641,12.4977282"></path>
            <path d="M761.24752,389.06459 C689.29448,385.82724 625.46108,411.42153 618.7623,446.19477 C617.97575,450.27765 617.97132,453.76358 618.7498,457.84696 L749.11435,452.05958 L879.46414,457.92439 C886.16064,423.15114 833.20064,392.302 761.24752,389.06459 Z" id="Shape" stroke="#000000" stroke-width="9.37329578" fill="#FF8080" fill-rule="nonzero" stroke-dasharray="28.11988845,28.11988845"></path>
            <polygon id="Shape" fill="#000000" fill-rule="nonzero" points="918.57184 538.96878 919.88324 540.91792 914.22404 544.38536 912.98284 542.55494"></polygon>
            <path d="M694.83478,2037.58874 C563.87259,1302.52642 568.46769,1305.7084 568.46769,1305.7084" id="Shape" stroke="#808080" stroke-width="5.38544273" fill="#808080" fill-rule="nonzero" stroke-dasharray="21.54176883,10.77088441,5.38544224,10.77088441"></path>
            <path d="M750.66151,1688.03634 C750.66151,0.843 750.66151,0.843 750.66151,0.843" id="Shape" stroke="#6C5D53" stroke-width="6.24886417" fill="#483E37" fill-rule="nonzero" stroke-dasharray="24.9954564,12.4977282,6.2488641,12.4977282"></path>
            <path d="M879.55024,450.63509 C879.55024,485.55867 820.90106,513.90246 748.63682,513.90246 C676.37258,513.90246 617.72336,485.55867 617.72336,450.63509 C617.72336,442.23974 620.54135,435.11247 626.94631,427.30851" id="Shape" stroke="#000000" stroke-width="9.37329578" fill="#FF8080" fill-rule="nonzero"></path>
            <path d="M0.79782,1688.03634 C1500.52524,1688.03634 1500.52524,1688.03634 1500.52524,1688.03634" id="Shape" stroke="#6C5D53" stroke-width="6.24886417" fill="#483E37" fill-rule="nonzero" stroke-dasharray="24.9954564,12.4977282,6.2488641,12.4977282"></path>
            <path d="M943.54534,604.66659 C973.03244,664.59938 883.56724,792.77421 743.84637,890.77114 C604.12552,988.76802 466.79742,1019.66059 437.31041,959.72779 C428.50895,941.83867 429.49427,920.68395 440.48783,891.50776" id="Shape" stroke="#000000" stroke-width="8.64299583" fill="#FF9955" fill-rule="nonzero"></path>
            <path d="M1144.58494,1919.21719 C1144.58494,1919.21719 1237.20524,1335.78856 1185.37124,1194.47506 C1157.75544,1119.18687 1047.32514,1423.50612 1047.32514,1423.50612" id="Shape" stroke="#000000" stroke-width="8.91310883" fill="#AAAAFF" fill-rule="nonzero" stroke-dasharray="26.73932703,26.73932703"></path>
            <path d="M1144.45244,1921.07286 C1144.45244,1921.07286 1237.07274,1337.64422 1185.23874,1196.33072" id="Shape" stroke="#000000" stroke-width="8.91310883" fill="#AAAAFF" fill-rule="nonzero"></path>
            <path d="M1092.85434,1682.62957 C1199.52634,1067.69686 1199.52634,1067.69686 1199.52634,1067.69686" id="Shape" stroke="#6C5D53" stroke-width="6.24886417" fill="#483E37" fill-rule="nonzero" stroke-dasharray="24.9954564,12.4977282,6.2488641,12.4977282"></path>
            <path d="M1012.65964,774.60276 C1084.09974,898.3407 865.32134,1456.32434 689.15738,1984.34092" id="Shape" stroke="#000000" stroke-width="8.91310883" fill="#B3FF80" fill-rule="nonzero"></path>
            <g id="Group" transform="translate(930.099740, 279.765700)" fill="#AA0000" font-family="Helvetica" font-size="150" font-weight="normal">
                <text id="circle">
                    <tspan x="0" y="146">circle</tspan>
                </text>
            </g>
            <g id="Group" transform="translate(1050.099740, 531.765700)" fill="#D45500" font-family="Helvetica" font-size="150" font-weight="normal">
                <text id="ellipse">
                    <tspan x="0" y="146">ellipse</tspan>
                </text>
            </g>
            <g id="Group" transform="translate(1129.099740, 783.765700)" fill="#7ED321" font-family="Helvetica" font-size="150" font-weight="normal">
                <text id="parabola">
                    <tspan x="0" y="146">parabola</tspan>
                </text>
            </g>
            <g id="Group" transform="translate(1218.099740, 1032.765700)" fill="#3771C8" font-family="Helvetica" font-size="150" font-weight="normal">
                <text id="hyperbola">
                    <tspan x="0" y="146">hyperbola</tspan>
                </text>
            </g>
        </g>
    </g>
</svg>