<?xml version="1.0" encoding="UTF-8"?>
<svg width="455px" height="464px" viewBox="0 0 455 464" version="1.1" xmlns="http://www.w3.org/2000/svg" xmlns:xlink="http://www.w3.org/1999/xlink">
    <!-- Generator: Sketch 51.3 (57544) - http://www.bohemiancoding.com/sketch -->
    <title>Eccentricity</title>
    <desc>Created with Sketch.</desc>
    <defs></defs>
    <g id="Page-1" stroke="none" stroke-width="1" fill="none" fill-rule="evenodd">
        <g id="Eccentricity">
            <g id="Group" transform="translate(0.381025, 0.885353)">
                <path d="M447.60147,459.9578 C431.84083,450.87572 359.67249,418.7345 334.60147,409.6316 C293.74106,394.79581 256.43624,387.18564 224.60147,387.19165 C196.8619,387.19688 158.65405,395.28418 119.60147,409.41658 C96.41888,417.80593 46.06548,439.93366 16.37145,454.78087 C6.8897,459.52181 6.60147,459.62138 6.60147,458.15598 C6.60147,455.2868 86.49935,419.12075 118.32016,407.58613 C160.80937,392.18436 196.92864,384.79601 227.60147,385.23217 C278.4253,385.95486 324.93966,399.84274 411.62047,440.17507 C441.4715,454.06466 454.60147,460.80293 454.60147,462.23281 C454.60147,463.69837 453.4346,463.31914 447.60147,459.9578 Z" id="path3667" fill="#0000FF" fill-rule="nonzero"></path>
                <path d="M454.2711,157.26145 C452.60096,157.48292 440.06796,163.07504 425.11485,170.2927 C322.9641,219.5994 265.42307,235.98438 206.11485,230.8552 C205.30464,230.78513 204.48835,230.68327 203.67735,230.6052 C157.67373,225.85725 106.13653,207.41395 29.48985,170.4177 C13.53985,162.71888 0.34089,156.87193 0.1461,157.4177 C-0.04869,157.96348 -0.04869,158.53522 0.1461,158.69895 C0.34089,158.86266 14.66485,165.76283 31.98985,174.0427 C100.70287,206.88166 145.36361,223.44288 184.8336,230.19895 C184.67385,230.24023 184.53634,230.26991 184.36485,230.2302 C196.42334,232.36709 207.87218,233.55858 219.55235,233.8552 C236.85888,234.55652 252.91532,233.42529 270.23985,230.3552 C269.90922,230.43176 269.62782,230.31642 269.3336,230.13645 C308.90829,223.42683 353.65479,206.87471 422.61485,173.9177 C439.93985,165.63783 454.26378,158.73768 454.4586,158.57395 C454.65339,158.41022 454.65336,157.83847 454.4586,157.2927 C454.44643,157.25859 454.38244,157.24669 454.2711,157.26145 Z" id="path3741" fill="#0000FF" fill-rule="nonzero"></path>
                <path d="M235.36485,214.5427 C229.98985,214.58437 224.61485,214.62603 219.23985,214.6677 C181.86979,214.95739 146.41635,192.06131 108.98985,153.63645 C76.92494,120.71619 49.4292,81.51161 16.2711,21.2927 C10.06289,10.01787 5.46745,0.61267 6.05235,0.4177 C6.30115,0.33477 6.45285,0.17776 6.61485,0.13645 C7.31686,-0.04256 8.21845,1.82643 18.0211,19.7927 C63.16813,102.53802 106.32059,156.44506 152.36485,187.6677 C174.36707,202.58743 201.46737,212.54243 221.1461,212.2927 C225.25027,212.24062 229.35443,212.18853 233.4586,212.13645 C253.13733,211.88672 280.23763,202.46243 302.23985,187.5427 C348.28411,156.32005 391.43657,102.38177 436.5836,19.63645 C445.63218,3.05219 447.07958,0.20994 447.80235,0.01145 C448.04327,-0.05471 448.22062,0.18212 448.55235,0.2927 C449.13726,0.48766 444.51056,9.86162 438.30235,21.13645 C405.14425,81.35537 377.67976,120.59119 345.61485,153.51145 C308.18835,191.93633 272.73491,214.25301 235.36485,214.5427 Z" id="path3733" fill="#00FF00" fill-rule="nonzero"></path>
                <path d="M293.48857,117.70074 C293.48857,160.21729 263.53679,194.68376 226.58939,194.68376 C189.642,194.68376 159.69022,160.21729 159.69022,117.70074 C159.69022,75.184182 189.642,40.717712 226.58939,40.717712 C263.53679,40.717712 293.48857,75.184182 293.48857,117.70074 Z" id="path3754" stroke="#FF9955" stroke-width="3" stroke-linecap="square"></path>
                <g id="e-=-0.5" transform="translate(105.632992, 120.749455)" fill="#FF9955" font-family="Helvetica-Oblique, Helvetica" font-size="16" font-style="italic" font-weight="normal">
                    <g id="=-0.5">
                        <text id="e-=-0.5">
                            <tspan x="0.954310396" y="15.0459645">e</tspan>
                            <tspan x="9.8527479" y="15.0459645" font-family="Helvetica"> = 0.5</tspan>
                        </text>
                    </g>
                </g>
                <g id="e-=-1" transform="translate(84.000000, 159.963640)" fill="#00FF00" font-family="Helvetica-Oblique, Helvetica" font-size="16" font-style="italic" font-weight="normal">
                    <g id="=-1">
                        <text id="e-=-1">
                            <tspan x="0.0927358758" y="15.7814441">e</tspan>
                            <tspan x="8.99117338" y="15.7814441" font-family="Helvetica"> = 1</tspan>
                        </text>
                    </g>
                </g>
                <g id="e-=-2" transform="translate(55.486393, 200.896140)" fill="#0000FF" font-family="Helvetica-Oblique, Helvetica" font-size="16" font-style="italic" font-weight="normal">
                    <g id="=-2">
                        <text id="e-=-2">
                            <tspan x="0.8199794" y="15.637567">e</tspan>
                            <tspan x="9.7184169" y="15.637567" font-family="Helvetica"> = 2</tspan>
                        </text>
                    </g>
                </g>
                <path d="M255.13461,156.48893 C255.13461,172.53174 242.12934,185.537 226.08653,185.537 C210.04373,185.53701 197.03846,172.53174 197.03846,156.48893 C197.03846,140.44612 210.04373,127.44085 226.08653,127.44085 C242.12934,127.44085 255.13461,140.44612 255.13461,156.48893 Z" id="path3798" stroke="#FF0000" stroke-width="3" stroke-linecap="square"></path>
                <path d="M7.13102,271.29729 L452.74837,270.93049" id="path3806" stroke="#000000"></path>
                <g id="e-=-0" transform="translate(178.731293, 109.810536)" fill="#FF0000" font-family="Helvetica-Oblique, Helvetica" font-size="16" font-style="italic" font-weight="normal">
                    <g id="=-0">
                        <text id="e-=-0">
                            <tspan x="0.046272" y="15.700736">e</tspan>
                            <tspan x="8.9447095" y="15.700736" font-family="Helvetica"> = 0</tspan>
                        </text>
                    </g>
                </g>
                <g id="e-=-∞" transform="translate(44.000000, 270.930490)" fill="#000000" font-family="Helvetica-Oblique, Helvetica" font-size="16" font-style="italic" font-weight="normal">
                    <g id="=-∞">
                        <text id="e-=-∞">
                            <tspan x="0.4570275" y="15.864412">e</tspan>
                            <tspan x="9.355465" y="15.864412" font-family="Helvetica"> = ∞</tspan>
                        </text>
                    </g>
                </g>
                <g id="tspan5096" transform="translate(231.000000, 149.000000)" fill="#000000" font-family="Arial-ItalicMT, Arial" font-size="12" font-style="italic" font-weight="normal">
                    <g id="F">
                        <text>
                            <tspan x="0.61598" y="11.38141">F</tspan>
                        </text>
                    </g>
                </g>
            </g>
            <rect id="Rectangle" stroke="#000000" fill="#000000" fill-rule="nonzero" x="224.881025" y="159.422395" width="6" height="6" rx="3"></rect>
        </g>
    </g>
</svg>